<?xml version="1.0" encoding="UTF-8"?>
<svg id="Layer_1" data-name="Layer 1" xmlns="http://www.w3.org/2000/svg" viewBox="0 0 124 124">
  <path d="m49,98.7l-6.1-33.4-17.3,7.8-16.8,7.6,3.9,21.6c-1.2-.2-2.4-.2-3.7,0-5.9,1.1-9.9,6.8-8.9,12.7,1,5.2,5.7,8.9,10.8,8.9s11.9-6.2,10.7-12.9l-4.7-26,8.7-3.9,11.8-5.4,2.6,14.2c-1.2-.2-2.4-.2-3.7,0-5.9,1.1-9.8,6.7-8.8,12.7,1,5.4,5.7,8.9,10.7,8.9s12-6.2,10.7-12.9h0Z" style="fill: #9bf; stroke-width: 0px;"/>
  <path d="m40,90c-1.2-.2-2.4-.2-3.7,0-5.9,1.1-9.8,6.7-8.8,12.7,1,5.4,5.7,8.9,10.7,8.9s12-6.2,10.7-12.9l-6.1-33.4-17.3,7.8v8l11.8-5.4,2.6,14.2Z" style="fill: #8095ff; stroke-width: 0px;"/>
  <path d="m83.8,4l-12.2,1.2-4.4,33.3c-2-1.5-4.2-2.6-6.8-2.9-7.9-1.1-15.3,4.3-16.5,12.3-1.3,8.8,5.6,16.6,14.4,16.6s13.3-5.2,14.4-12.4c0,0,5.3-40.1,5.3-40.1l5.7-.6,31.8-3.2-3.4,25.9c-1.9-1.5-4.2-2.6-6.8-2.9-7.9-1.1-15.3,4.3-16.5,12.3-1.3,8.8,5.6,16.6,14.4,16.6s13.3-5.2,14.4-12.4c0,0,6.3-47.5,6.3-47.5l-40.2,4Z" style="fill: #9bf; stroke-width: 0px;"/>
  <path d="m112.2,34c-1.9-1.5-4.2-2.6-6.8-2.9-7.9-1.1-15.3,4.3-16.5,12.3-1.3,8.8,5.6,16.6,14.4,16.6s13.3-5.2,14.4-12.4c0,0,6.3-47.5,6.3-47.5l-40.2,4v7.3l31.8-3.2-3.4,25.9Z" style="fill: #8095ff; stroke-width: 0px;"/>
  <path d="m99.2,66.5l-11.9,24.9c-.9-.9-1.8-1.6-3-2.2-1.4-.7-2.8-1-4.2-1.1-4.3-.2-8.4,2.1-10.3,6.2-3.5,7.2,1.8,15.6,9.8,15.6s.3,0,.5,0c3.9-.2,7.5-2.4,9.3-6.1h0s8.7-18.3,8.7-18.3l3.9,11.1,6.8-2.4-9.8-27.6Z" style="fill: #ffd480; stroke-width: 0px;"/>
  <path d="m89.5,103.7h0s8.7-18.3,8.7-18.3l3.9,11.1,6.8-2.4-9.8-27.6-11.9,24.9c-.9-.9-1.8-1.6-3-2.2-1.4-.7-2.8-1-4.2-1.1v21.7c3.9-.2,7.5-2.4,9.3-6.1h0Z" style="fill: #fb3; stroke-width: 0px;"/>
  <path d="m37.4,26l-19-12.6-5.4-3.6,5.4,26.7v.4c0,0,0,0,0,0-1.2-.2-2.4-.2-3.6,0-5.9,1.2-9.7,7-8.5,12.8,1.1,5.3,5.7,8.7,10.7,8.7s1-.1,1.5-.2c6.2-.8,10.5-6.7,9.2-12.9l-4-19.9,9.8,6.5,4-6.1Z" style="fill: #ffd480; stroke-width: 0px;"/>
  <path d="m27.6,45.4l-4-19.9,9.8,6.5,4-6.1-19-12.6v23.5c0,0,0,0,0,0v21.5c6.2-.8,10.5-6.7,9.2-12.9Z" style="fill: #fb3; stroke-width: 0px;"/>
</svg>